<svg xmlns="http://www.w3.org/2000/svg" xmlns:xlink="http://www.w3.org/1999/xlink" width="187" height="187" viewBox="0 0 187 187"><defs><style>.a{fill:rgba(69,90,100,0);}.b,.d{fill:#ffd59b;}.c,.d{stroke:none;}.e{filter:url(#i);}.f{filter:url(#g);}.g{filter:url(#e);}.h{filter:url(#c);}.i{filter:url(#a);}</style><filter id="a" x="0" y="0" width="187" height="187" filterUnits="userSpaceOnUse"><feOffset input="SourceAlpha"/><feGaussianBlur stdDeviation="4.5" result="b"/><feFlood flood-color="#ffd59b" flood-opacity="0.345"/><feComposite operator="in" in2="b"/><feComposite in="SourceGraphic"/></filter><filter id="c" x="40.281" y="85.207" width="46" height="56.223" filterUnits="userSpaceOnUse"><feOffset input="SourceAlpha"/><feGaussianBlur stdDeviation="4.5" result="d"/><feFlood flood-color="#ffd59b" flood-opacity="0.4"/><feComposite operator="in" in2="d"/><feComposite in="SourceGraphic"/></filter><filter id="e" x="61.322" y="82.32" width="92.02" height="62" filterUnits="userSpaceOnUse"><feOffset input="SourceAlpha"/><feGaussianBlur stdDeviation="4.5" result="f"/><feFlood flood-color="#ffd59b" flood-opacity="0.4"/><feComposite operator="in" in2="f"/><feComposite in="SourceGraphic"/></filter><filter id="g" x="65.926" y="29.059" width="68.044" height="68.044" filterUnits="userSpaceOnUse"><feOffset input="SourceAlpha"/><feGaussianBlur stdDeviation="4.5" result="h"/><feFlood flood-color="#ffd59b" flood-opacity="0.4"/><feComposite operator="in" in2="h"/><feComposite in="SourceGraphic"/></filter><filter id="i" x="111.286" y="68.581" width="37.556" height="40.815" filterUnits="userSpaceOnUse"><feOffset dy="3" input="SourceAlpha"/><feGaussianBlur stdDeviation="3" result="j"/><feFlood flood-color="#ffd59b" flood-opacity="0.4"/><feComposite operator="in" in2="j"/><feComposite in="SourceGraphic"/></filter></defs><g transform="translate(13.5 13.5)"><g transform="translate(6.285 4)"><g class="i" transform="matrix(1, 0, 0, 1, -19.78, -17.5)"><g class="a" transform="translate(13.5 13.5)"><path class="c" d="M 80 158 C 69.46917724609375 158 59.25443649291992 155.9379730224609 49.63949966430664 151.8712005615234 C 45.01810836791992 149.9165191650391 40.56060791015625 147.4970397949219 36.39084625244141 144.6799926757812 C 32.26019668579102 141.8893890380859 28.37582588195801 138.6844787597656 24.84567451477051 135.1543273925781 C 21.31552124023438 131.6241760253906 18.11060905456543 127.7398071289062 15.31999969482422 123.6091537475586 C 12.50295639038086 119.4393920898438 10.08347797393799 114.9818878173828 8.128804206848145 110.3604965209961 C 4.062021732330322 100.7455673217773 2 90.53082275390625 2 80 C 2 69.46917724609375 4.062021732330322 59.25443649291992 8.128804206848145 49.63949966430664 C 10.08347797393799 45.01810836791992 12.50295639038086 40.56060791015625 15.31999969482422 36.39084625244141 C 18.11060905456543 32.26019668579102 21.31552124023438 28.37582588195801 24.84567451477051 24.84567451477051 C 28.37582588195801 21.31552124023438 32.26019668579102 18.11060905456543 36.39084625244141 15.31999969482422 C 40.56060791015625 12.50295639038086 45.01810836791992 10.08347797393799 49.63949966430664 8.128804206848145 C 59.25443649291992 4.062021732330322 69.46917724609375 2 80 2 C 90.53082275390625 2 100.7455673217773 4.062021732330322 110.3604965209961 8.128804206848145 C 114.9818878173828 10.08347797393799 119.4393920898438 12.50295639038086 123.6091537475586 15.31999969482422 C 127.7398071289062 18.11060905456543 131.6241760253906 21.31552124023438 135.1543273925781 24.84567451477051 C 138.6844787597656 28.37582588195801 141.8893890380859 32.26019668579102 144.6799926757812 36.39084625244141 C 147.4970397949219 40.56060791015625 149.9165191650391 45.01810836791992 151.8712005615234 49.63949966430664 C 155.9379730224609 59.25443649291992 158 69.46917724609375 158 80 C 158 90.53082275390625 155.9379730224609 100.7455673217773 151.8712005615234 110.3604965209961 C 149.9165191650391 114.9818878173828 147.4970397949219 119.4393920898438 144.6799926757812 123.6091537475586 C 141.8893890380859 127.7398071289062 138.6844787597656 131.6241760253906 135.1543273925781 135.1543273925781 C 131.6241760253906 138.6844787597656 127.7398071289062 141.8893890380859 123.6091537475586 144.6799926757812 C 119.4393920898438 147.4970397949219 114.9818878173828 149.9165191650391 110.3604965209961 151.8712005615234 C 100.7455673217773 155.9379730224609 90.53082275390625 158 80 158 Z"/><path class="d" d="M 80 4 C 69.73831176757812 4 59.78569030761719 6.008880615234375 50.41859436035156 9.970809936523438 C 45.91614532470703 11.87518310546875 41.57321166992188 14.23249816894531 37.51045227050781 16.97723388671875 C 33.48528289794922 19.69659423828125 29.70002746582031 22.81973266601562 26.2598876953125 26.2598876953125 C 22.81973266601562 29.70002746582031 19.69659423828125 33.48528289794922 16.97723388671875 37.51045227050781 C 14.23249816894531 41.57321166992188 11.87518310546875 45.91614532470703 9.970809936523438 50.41859436035156 C 6.008880615234375 59.78569030761719 4 69.73831176757812 4 80 C 4 90.26168823242188 6.008880615234375 100.2143096923828 9.970809936523438 109.5814056396484 C 11.87518310546875 114.0838623046875 14.23249816894531 118.4267883300781 16.97723388671875 122.4895477294922 C 19.69659423828125 126.5147094726562 22.81973266601562 130.2999725341797 26.2598876953125 133.7401123046875 C 29.70002746582031 137.1802673339844 33.48528289794922 140.3034057617188 37.51045227050781 143.0227661132812 C 41.57321166992188 145.7675018310547 45.91614532470703 148.1248168945312 50.41859436035156 150.0291900634766 C 59.78569030761719 153.9911193847656 69.73831176757812 156 80 156 C 90.26168823242188 156 100.2143096923828 153.9911193847656 109.5814056396484 150.0291900634766 C 114.0838623046875 148.1248168945312 118.4267883300781 145.7675018310547 122.4895477294922 143.0227661132812 C 126.5147094726562 140.3034057617188 130.2999725341797 137.1802673339844 133.7401123046875 133.7401123046875 C 137.1802673339844 130.2999725341797 140.3034057617188 126.5147094726562 143.0227661132812 122.4895477294922 C 145.7675018310547 118.4267883300781 148.1248168945312 114.0838623046875 150.0291900634766 109.5814056396484 C 153.9911193847656 100.2143096923828 156 90.26168823242188 156 80 C 156 69.73831176757812 153.9911193847656 59.78569030761719 150.0291900634766 50.41859436035156 C 148.1248168945312 45.91614532470703 145.7675018310547 41.57321166992188 143.0227661132812 37.51045227050781 C 140.3034057617188 33.48528289794922 137.1802673339844 29.70002746582031 133.7401123046875 26.2598876953125 C 130.2999725341797 22.81973266601562 126.5147094726562 19.69659423828125 122.4895477294922 16.97723388671875 C 118.4267883300781 14.23249816894531 114.0838623046875 11.87518310546875 109.5814056396484 9.970809936523438 C 100.2143096923828 6.008880615234375 90.26168823242188 4 80 4 M 80 0 C 124.1827850341797 0 160 35.81721496582031 160 80 C 160 124.1827850341797 124.1827850341797 160 80 160 C 35.81721496582031 160 0 124.1827850341797 0 80 C 0 35.81721496582031 35.81721496582031 0 80 0 Z"/></g></g></g><g transform="translate(40.281 82.32)"><g class="h" transform="matrix(1, 0, 0, 1, -53.78, -95.82)"><path class="b" d="M-638.571,860.424c-.01-2.1-.069-4.194-.016-6.288a4.857,4.857,0,0,0-2.011-4.342,5.568,5.568,0,0,0-2.744-.7c-3.219.01-6.438.012-9.657.032a4.365,4.365,0,0,0-4.566,4.592q-.011,9.977,0,19.955a4.365,4.365,0,0,0,4.608,4.636c3.1.005,6.2-.014,9.295.008a6.991,6.991,0,0,0,2.671-.436,5.02,5.02,0,0,0,2.406-4.637c-.053-3.115,0-6.231.015-9.347Q-638.571,862.159-638.571,860.424Z" transform="translate(711.35 -750.38)"/></g><g class="g" transform="matrix(1, 0, 0, 1, -53.78, -95.82)"><path class="b" d="M-489.654,854.762c.721-.426,1.435-.864,2.163-1.277,1.816-1.03,3.638-2.05,5.458-3.074a12.153,12.153,0,0,1,1.291-.817,5.753,5.753,0,0,0,3.3-3.971h0c.1-3.317-1.174-5.086-4.168-5.8a6.519,6.519,0,0,0-1.822,0l-.365.031-4.926,1.631-11.455,4.019c-.2.07-.4.148-.6.2a2.846,2.846,0,0,0-2.576,2.71c-.613,4.1-5.251,5.787-8.908,3.513a14.25,14.25,0,0,1-2.18-1.287c-2.128-1.208-4.269-2.4-6.379-3.636a1.315,1.315,0,0,1-.451-1.963,1.347,1.347,0,0,1,1.963-.483c2.19,1.257,4.426,2.437,6.533,3.835a.737.737,0,0,0,.163.059l2.445,1.4c2.735.684,4.395-.782,4.068-3.593-.138-.088-.135-.228-.138-.366a5.985,5.985,0,0,0-2.073-1.813l-7.779-4.558-2.579-1.473a80.91,80.91,0,0,0-8.351-3.865l-3.233-.837a.882.882,0,0,1-.119-.031c-2.88-.2-5.467.866-8.051,1.9-1.233.495-2.418,1.108-3.622,1.674-.222.1-.565.132-.334.553.951,1.738.766,3.641.767,5.515,0,.606-.018,1.212-.028,1.819q0,2.006,0,4.013c.01,3.565.014,7.131.041,10.7,0,.265-.253.708.313.773a22.049,22.049,0,0,0,2.863-.21c1.1-.047,2.138-.714,3.279-.348a2.447,2.447,0,0,1,1.112.356,35.2,35.2,0,0,1,5.918,3.866h0l2.39,1.633c.261.146.525.286.782.44,2.792,1.68,5.667,2.969,9.037,1.905l6.395-2.666c3.491-1.79,7-3.55,10.47-5.38C-495.892,858.2-492.782,856.466-489.654,854.762Z" transform="translate(617.28 -737.48)"/></g></g><g class="f" transform="matrix(1, 0, 0, 1, -13.5, -13.5)"><path class="b" d="M23.522,3A20.522,20.522,0,1,0,44.044,23.522,20.53,20.53,0,0,0,23.522,3Zm2.894,33.02v3.92H20.936V35.979c-3.509-.739-6.485-3-6.711-6.977h4.022c.205,2.155,1.683,3.838,5.438,3.838,4.022,0,4.925-2.011,4.925-3.263,0-1.7-.9-3.3-5.479-4.392-5.089-1.231-8.578-3.325-8.578-7.532,0-3.53,2.853-5.828,6.382-6.588V7.1h5.479v4a7.255,7.255,0,0,1,5.849,6.957H28.242c-.1-2.278-1.313-3.838-4.556-3.838-3.078,0-4.925,1.4-4.925,3.366,0,1.724,1.334,2.853,5.479,3.92s8.578,2.853,8.578,8.024c-.021,3.756-2.832,5.808-6.4,6.485Z" transform="translate(76.43 39.56)"/></g><g class="e" transform="matrix(1, 0, 0, 1, -13.5, -13.5)"><path class="b" d="M25.505,18.046l-8.148,8.148a1.63,1.63,0,0,1-2.3,0L6.9,18.046a1.63,1.63,0,1,1,2.3-2.3l5.366,5.366V5.486a1.63,1.63,0,1,1,3.259,0V21.107L23.2,15.741a1.63,1.63,0,0,1,2.3,2.3Z" transform="translate(113.86 70.73)"/></g></g></svg>