<svg xmlns="http://www.w3.org/2000/svg" xmlns:xlink="http://www.w3.org/1999/xlink" width="120.494" height="120.494" viewBox="0 0 120.494 120.494"><defs><style>.a{fill:rgba(69,90,100,0);}.b,.e{fill:#ffd59b;}.c{fill:#fff;}.d,.e{stroke:none;}.f{filter:url(#c);}.g{filter:url(#a);}</style><filter id="a" x="0" y="0" width="120.494" height="120.494" filterUnits="userSpaceOnUse"><feOffset input="SourceAlpha"/><feGaussianBlur stdDeviation="4.5" result="b"/><feFlood flood-color="#ffd59b" flood-opacity="0.345"/><feComposite operator="in" in2="b"/><feComposite in="SourceGraphic"/></filter><filter id="c" x="27.958" y="28.095" width="63.943" height="56.714" filterUnits="userSpaceOnUse"><feOffset input="SourceAlpha"/><feGaussianBlur stdDeviation="4.5" result="d"/><feFlood flood-color="#ffd59b" flood-opacity="0.706"/><feComposite operator="in" in2="d"/><feComposite in="SourceGraphic"/></filter></defs><g transform="translate(17.5 17.5)"><g class="g" transform="matrix(1, 0, 0, 1, -17.5, -17.5)"><g class="a" transform="translate(17.5 17.5)"><path class="d" d="M 42.74691772460938 87.49384307861328 C 36.70700454711914 87.49384307861328 30.84669303894043 86.31047058105469 25.32878112792969 83.97657775878906 C 20.00011825561523 81.72274017333984 15.21490478515625 78.49660491943359 11.1060676574707 74.38776397705078 C 6.99724292755127 70.27894592285156 3.771092653274536 65.49372863769531 1.517255187034607 60.16505432128906 C -0.8166197538375854 54.64714431762695 -1.99999475479126 48.78683090209961 -1.99999475479126 42.74691772460938 C -1.99999475479126 36.70700454711914 -0.8166197538375854 30.84669303894043 1.517255187034607 25.32878112792969 C 3.771092653274536 20.00011825561523 6.99724292755127 15.21490478515625 11.1060676574707 11.1060676574707 C 15.21490478515625 6.99724292755127 20.00011825561523 3.771092653274536 25.32878112792969 1.517255187034607 C 30.84669303894043 -0.8166197538375854 36.70700454711914 -1.99999475479126 42.74691772460938 -1.99999475479126 C 48.78683090209961 -1.99999475479126 54.64714431762695 -0.8166197538375854 60.16505432128906 1.517255187034607 C 65.49372863769531 3.771092653274536 70.27894592285156 6.99724292755127 74.38776397705078 11.1060676574707 C 78.49660491943359 15.21490478515625 81.72274017333984 20.00011825561523 83.97657775878906 25.32878112792969 C 86.31047058105469 30.84669303894043 87.49384307861328 36.70700454711914 87.49384307861328 42.74691772460938 C 87.49384307861328 48.78683090209961 86.31047058105469 54.64714431762695 83.97657775878906 60.16505432128906 C 81.72274017333984 65.49372863769531 78.49660491943359 70.27894592285156 74.38776397705078 74.38776397705078 C 70.27894592285156 78.49660491943359 65.49372863769531 81.72274017333984 60.16505432128906 83.97657775878906 C 54.64714431762695 86.31047058105469 48.78683090209961 87.49384307861328 42.74691772460938 87.49384307861328 Z"/><path class="e" d="M 42.74691772460938 0 C 19.13844299316406 0 0 19.13844299316406 0 42.74691772460938 C 0 66.35539245605469 19.13844299316406 85.49383544921875 42.74691772460938 85.49383544921875 C 66.35539245605469 85.49383544921875 85.49383544921875 66.35539245605469 85.49383544921875 42.74691772460938 C 85.49383544921875 19.13844299316406 66.35539245605469 0 42.74691772460938 0 M 42.74691772460938 -4 C 49.05594635009766 -4 55.17839050292969 -2.763465881347656 60.94416046142578 -0.3247528076171875 C 66.51121520996094 2.029914855957031 71.51011657714844 5.399986267089844 75.80197143554688 9.691864013671875 C 80.09384918212891 13.98371887207031 83.46392059326172 18.98262023925781 85.81858825683594 24.54967498779297 C 88.25730133056641 30.31544494628906 89.49383544921875 36.43788909912109 89.49383544921875 42.74691772460938 C 89.49383544921875 49.05594635009766 88.25730133056641 55.17839050292969 85.81858825683594 60.94416046142578 C 83.46392059326172 66.51121520996094 80.09384918212891 71.51011657714844 75.80197143554688 75.80197143554688 C 71.51011657714844 80.09384918212891 66.51121520996094 83.46392059326172 60.94416046142578 85.81858825683594 C 55.17839050292969 88.25730133056641 49.05594635009766 89.49383544921875 42.74691772460938 89.49383544921875 C 36.43788909912109 89.49383544921875 30.31544494628906 88.25730133056641 24.54967498779297 85.81858825683594 C 18.98262023925781 83.46392059326172 13.98371887207031 80.09384918212891 9.691864013671875 75.80197143554688 C 5.399986267089844 71.51011657714844 2.029914855957031 66.51121520996094 -0.3247528076171875 60.94416046142578 C -2.763465881347656 55.17839050292969 -4 49.05594635009766 -4 42.74691772460938 C -4 36.43788909912109 -2.763465881347656 30.31544494628906 -0.3247528076171875 24.54967498779297 C 2.029914855957031 18.98262023925781 5.399986267089844 13.98371887207031 9.691864013671875 9.691864013671875 C 13.98371887207031 5.399986267089844 18.98262023925781 2.029914855957031 24.54967498779297 -0.3247528076171875 C 30.31544494628906 -2.763465881347656 36.43788909912109 -4 42.74691772460938 -4 Z"/></g></g><g transform="translate(23.958 24.095)"><path class="b" d="M1939.3,1029.638h-36.943L1939.3,1013Z" transform="translate(-1902.358 -999.923)"/><g class="f" transform="matrix(1, 0, 0, 1, -41.46, -41.59)"><path class="c" d="M1939.3,796.714h-36.943l18.5-29.714Z" transform="translate(-1860.9 -725.41)"/></g><path class="b" d="M1902.358,1029.638H1939.3L1902.358,1013Z" transform="translate(-1902.358 -999.923)"/></g></g></svg>