<svg xmlns="http://www.w3.org/2000/svg" width="32" height="20.572" viewBox="0 0 32 20.572"><defs><style>.a{fill:#ffd59b;}</style></defs><path class="a" d="M24.068,16.446A4.286,4.286,0,1,0,19.7,12.161,4.338,4.338,0,0,0,24.068,16.446Zm-11.636,0a4.286,4.286,0,1,0-4.364-4.286A4.338,4.338,0,0,0,12.432,16.446Zm0,3.143c-3.418,0-10.182,1.643-10.182,5v3.857H22.821V24.589C22.821,21.232,15.85,19.589,12.432,19.589Zm11.636.786a7.762,7.762,0,0,0-1.247.071c1.673,1.214,2.286,2,2.286,4.143v3.857H34.25V24.589C34.25,21.232,27.487,20.375,24.068,20.375Z" transform="translate(-2.25 -7.875)"/></svg>