<svg xmlns="http://www.w3.org/2000/svg" width="33.5" height="19.143" viewBox="0 0 33.5 19.143"><defs><style>.a{fill:#ffd59b;}</style></defs><g transform="translate(-2.25 -9)"><path class="a" d="M32.128,10.8a1.278,1.278,0,0,0-.7.2l-6.468,4.083a.64.64,0,0,0-.3.538v5.683a.64.64,0,0,0,.3.538l6.468,4.083a1.344,1.344,0,0,0,.7.2h1.555a.637.637,0,0,0,.643-.636V11.436a.641.641,0,0,0-.643-.636Z" transform="translate(1.423 0.114)"/><path class="a" d="M20.309,28.143H6.1A3.863,3.863,0,0,1,2.25,24.3V12.844A3.857,3.857,0,0,1,6.094,9H20.3a3.857,3.857,0,0,1,3.844,3.844V24.292A3.847,3.847,0,0,1,20.309,28.143Z"/></g></svg>